<svg width="292" height="62" viewBox="0 0 292 62" fill="none" xmlns="http://www.w3.org/2000/svg">
<path fill-rule="evenodd" clip-rule="evenodd" d="M290.788 61.3509L291.077 61.0619C291.961 60.0291 291.899 58.469 290.891 57.523C252.881 21.8494 201.742 0 145.5 0C89.7919 0 39.0905 21.4365 1.19471 56.5107C0.124468 57.5013 0.10357 59.1809 1.13474 60.2121C2.12793 61.2053 3.73025 61.2256 4.76136 60.2718C41.7278 26.0789 91.1736 5.18292 145.5 5.18292C200.347 5.18292 250.22 26.4816 287.299 61.2593C288.278 62.1779 289.785 62.2094 290.788 61.3509ZM1.13474 60.2121C1.10672 60.1841 1.07949 60.1556 1.05303 60.1266L1.22008 60.2937C1.19117 60.2673 1.16271 60.2401 1.13474 60.2121Z" fill="#2AF918"/>
</svg>
