<svg width="425" height="425" viewBox="0 0 425 425" fill="none" xmlns="http://www.w3.org/2000/svg">
<path fill-rule="evenodd" clip-rule="evenodd" d="M212.5 425C268.647 425 319.708 403.225 357.698 367.658C358.758 366.666 358.774 364.994 357.747 363.967V363.967C356.75 362.97 355.14 362.954 354.11 363.918C317.051 398.591 267.254 419.817 212.5 419.817C158.267 419.817 108.897 398.993 71.9513 364.904C70.92 363.952 69.3194 363.973 68.3271 364.966V364.966C67.295 365.998 67.3169 367.679 68.3894 368.669C106.264 403.637 156.887 425 212.5 425ZM57.523 357.891C58.5161 358.95 60.1859 358.965 61.2121 357.938V357.938C62.2102 356.94 62.2249 355.328 61.2593 354.299C26.4816 317.22 5.18292 267.347 5.18292 212.5C5.18292 157.746 26.4094 107.949 61.0825 70.89C62.046 69.8601 62.0303 68.2498 61.033 67.2526V67.2526C60.006 66.2255 58.3344 66.2416 57.3418 67.3019C21.7754 105.292 0 156.353 0 212.5C0 268.742 21.8494 319.881 57.523 357.891ZM425 212.5C425 268.208 403.563 318.909 368.489 356.805C367.499 357.876 365.819 357.896 364.788 356.865V356.865C363.795 355.872 363.774 354.27 364.728 353.239C398.921 316.272 419.817 266.826 419.817 212.5C419.817 158.267 398.993 108.897 364.904 71.9513C363.952 70.92 363.973 69.3194 364.966 68.3271V68.3271C365.998 67.295 367.679 67.317 368.669 68.3894C403.637 106.264 425 156.887 425 212.5ZM357.939 61.2121C358.965 60.1859 358.95 58.5161 357.891 57.523C319.881 21.8494 268.742 0 212.5 0C156.792 0 106.091 21.4365 68.1947 56.5107C67.1245 57.5013 67.1036 59.1809 68.1347 60.2121V60.2121C69.1279 61.2053 70.7303 61.2256 71.7614 60.2718C108.728 26.0789 158.174 5.18293 212.5 5.18293C267.347 5.18293 317.22 26.4816 354.299 61.2593C355.328 62.2249 356.94 62.2102 357.939 61.2121V61.2121Z" fill="#15CECE"/>
</svg>
