<svg width="62" height="293" viewBox="0 0 62 293" fill="none" xmlns="http://www.w3.org/2000/svg">
<path fill-rule="evenodd" clip-rule="evenodd" d="M61.0844 292.058C60.0518 292.962 58.4759 292.907 57.523 291.891C21.8494 253.881 0 202.742 0 146.5C0 90.3532 21.7754 39.2924 57.3418 1.30189C58.3344 0.241575 60.006 0.225492 61.0331 1.25255C62.0303 2.24977 62.046 3.86011 61.0825 4.88994C26.4094 41.949 5.18292 91.7456 5.18292 146.5C5.18292 201.347 26.4816 251.22 61.2593 288.299C62.1872 289.288 62.2098 290.815 61.3245 291.819C61.2885 291.86 61.251 291.899 61.2121 291.938C61.1705 291.98 61.1279 292.02 61.0844 292.058Z" fill="#15CECE"/>
</svg>
