<svg width="81" height="270" viewBox="0 0 81 270" fill="none" xmlns="http://www.w3.org/2000/svg">
<rect x="8.5" y="186.5" width="103" height="25" transform="rotate(-90 8.5 186.5)" fill="url(#paint0_diamond_23_93)" stroke="black"/>
<path fill-rule="evenodd" clip-rule="evenodd" d="M53.6583 0.658325L79.6853 26.6853C53.2149 54.8634 37 92.7881 37 134.5C37 176.43 53.3851 214.533 80.1017 242.756L53.5891 269.269C20.3783 234.303 0 187.031 0 135C0 82.9327 20.4067 35.6316 53.6583 0.658325ZM26.52 176.594C27.032 175.682 27.288 174.658 27.288 173.522C27.288 172.114 26.912 170.922 26.16 169.946C25.408 168.97 24.432 168.362 23.232 168.122V170.186C23.984 170.346 24.568 170.738 24.984 171.362C25.384 171.986 25.584 172.714 25.584 173.546C25.584 174.218 25.416 174.85 25.08 175.442C24.728 176.034 24.216 176.514 23.544 176.882C22.872 177.25 22.04 177.434 21.048 177.434C20.056 177.434 19.224 177.25 18.552 176.882C17.88 176.514 17.376 176.034 17.04 175.442C16.704 174.85 16.536 174.218 16.536 173.546C16.536 172.714 16.744 171.986 17.16 171.362C17.56 170.738 18.128 170.346 18.864 170.186V168.122C17.632 168.378 16.648 168.994 15.912 169.97C15.176 170.93 14.808 172.114 14.808 173.522C14.808 174.658 15.072 175.682 15.6 176.594C16.112 177.49 16.84 178.202 17.784 178.73C18.712 179.242 19.8 179.498 21.048 179.498C22.296 179.498 23.392 179.242 24.336 178.73C25.264 178.202 25.992 177.49 26.52 176.594ZM26.784 163.818C27.12 163.162 27.288 162.338 27.288 161.346C27.288 160.258 27.056 159.394 26.592 158.754C26.112 158.098 25.536 157.602 24.864 157.266L27 157.146V155.346H19.68C18.208 155.346 17.032 155.77 16.152 156.618C15.256 157.45 14.808 158.698 14.808 160.362C14.808 161.21 14.968 162.01 15.288 162.762C15.592 163.514 16.04 164.146 16.632 164.658C17.224 165.154 17.952 165.442 18.816 165.522V163.458C18.064 163.314 17.496 162.962 17.112 162.402C16.712 161.826 16.512 161.146 16.512 160.362C16.512 159.45 16.784 158.722 17.328 158.178C17.856 157.634 18.64 157.362 19.68 157.362H19.824V160.578C19.824 162.178 20.152 163.442 20.808 164.37C21.464 165.298 22.4 165.762 23.616 165.762C24.272 165.762 24.88 165.602 25.44 165.282C26 164.962 26.448 164.474 26.784 163.818ZM24.984 159.066C25.384 159.61 25.584 160.266 25.584 161.034C25.584 161.866 25.4 162.514 25.032 162.978C24.648 163.426 24.144 163.65 23.52 163.65C22.912 163.65 22.408 163.41 22.008 162.93C21.592 162.434 21.384 161.594 21.384 160.41V157.362H21.408C22.112 157.362 22.784 157.506 23.424 157.794C24.064 158.082 24.584 158.506 24.984 159.066ZM15.096 152.322H32.28V150.306H25.008C25.728 149.906 26.288 149.33 26.688 148.578C27.088 147.81 27.288 146.938 27.288 145.962C27.288 144.778 27.024 143.746 26.496 142.866C25.952 141.97 25.216 141.282 24.288 140.802C23.344 140.306 22.272 140.058 21.072 140.058C19.872 140.058 18.8 140.306 17.856 140.802C16.912 141.282 16.168 141.962 15.624 142.842C15.08 143.722 14.808 144.754 14.808 145.938C14.808 147.042 15.04 147.954 15.504 148.674C15.968 149.378 16.488 149.922 17.064 150.306L15.096 150.498V152.322ZM24.984 144.066C25.352 144.674 25.536 145.378 25.536 146.178C25.536 146.978 25.352 147.682 24.984 148.29C24.6 148.898 24.072 149.378 23.4 149.73C22.728 150.082 21.944 150.258 21.048 150.258C20.152 150.258 19.368 150.082 18.696 149.73C18.024 149.378 17.504 148.898 17.136 148.29C16.752 147.682 16.56 146.978 16.56 146.178C16.56 145.378 16.752 144.674 17.136 144.066C17.504 143.458 18.024 142.978 18.696 142.626C19.368 142.274 20.152 142.098 21.048 142.098C21.944 142.098 22.728 142.274 23.4 142.626C24.072 142.978 24.6 143.458 24.984 144.066ZM26.208 135.585C26.736 134.961 27 134.105 27 133.017V131.193H25.272V132.441C25.272 133.209 25.144 133.745 24.888 134.049C24.616 134.353 24.104 134.505 23.352 134.505H16.8V131.001H15.096V134.505H12.24V136.257L15.096 136.521V138.585H16.8V136.521H23.352C24.728 136.521 25.68 136.209 26.208 135.585ZM26.52 126.367C27.032 125.455 27.288 124.431 27.288 123.295C27.288 121.887 26.912 120.695 26.16 119.719C25.408 118.743 24.432 118.135 23.232 117.895V119.959C23.984 120.119 24.568 120.511 24.984 121.135C25.384 121.759 25.584 122.487 25.584 123.319C25.584 123.991 25.416 124.623 25.08 125.215C24.728 125.807 24.216 126.287 23.544 126.655C22.872 127.023 22.04 127.207 21.048 127.207C20.056 127.207 19.224 127.023 18.552 126.655C17.88 126.287 17.376 125.807 17.04 125.215C16.704 124.623 16.536 123.991 16.536 123.319C16.536 122.487 16.744 121.759 17.16 121.135C17.56 120.511 18.128 120.119 18.864 119.959V117.895C17.632 118.151 16.648 118.767 15.912 119.743C15.176 120.703 14.808 121.887 14.808 123.295C14.808 124.431 15.072 125.455 15.6 126.367C16.112 127.263 16.84 127.975 17.784 128.503C18.712 129.015 19.8 129.271 21.048 129.271C22.296 129.271 23.392 129.015 24.336 128.503C25.264 127.975 25.992 127.263 26.52 126.367ZM9.72 115.08H27V113.064H20.832C19.456 113.064 18.4 112.712 17.664 112.008C16.912 111.304 16.536 110.432 16.536 109.392C16.536 107.392 17.776 106.392 20.256 106.392H27V104.4H20.04C18.264 104.4 16.952 104.816 16.104 105.648C15.24 106.48 14.808 107.584 14.808 108.96C14.808 109.824 15.016 110.624 15.432 111.36C15.832 112.096 16.4 112.664 17.136 113.064H9.72V115.08ZM26.784 99.8576C27.12 99.2015 27.288 98.3776 27.288 97.3856C27.288 96.2976 27.056 95.4336 26.592 94.7936C26.112 94.1376 25.536 93.6416 24.864 93.3056L27 93.1856V91.3856H19.68C18.208 91.3856 17.032 91.8096 16.152 92.6576C15.256 93.4896 14.808 94.7376 14.808 96.4016C14.808 97.2496 14.968 98.0495 15.288 98.8016C15.592 99.5536 16.04 100.186 16.632 100.698C17.224 101.194 17.952 101.482 18.816 101.562V99.4976C18.064 99.3535 17.496 99.0016 17.112 98.4416C16.712 97.8656 16.512 97.1856 16.512 96.4016C16.512 95.4896 16.784 94.7616 17.328 94.2175C17.856 93.6735 18.64 93.4016 19.68 93.4016H19.824V96.6175C19.824 98.2176 20.152 99.4816 20.808 100.41C21.464 101.338 22.4 101.802 23.616 101.802C24.272 101.802 24.88 101.642 25.44 101.322C26 101.002 26.448 100.514 26.784 99.8576ZM24.984 95.1055C25.384 95.6496 25.584 96.3056 25.584 97.0736C25.584 97.9056 25.4 98.5536 25.032 99.0176C24.648 99.4655 24.144 99.6896 23.52 99.6896C22.912 99.6896 22.408 99.4496 22.008 98.9696C21.592 98.4736 21.384 97.6335 21.384 96.4496V93.4016H21.408C22.112 93.4016 22.784 93.5456 23.424 93.8336C24.064 94.1216 24.584 94.5456 24.984 95.1055Z" fill="white"/>
<defs>
<radialGradient id="paint0_diamond_23_93" cx="0" cy="0" r="1" gradientUnits="userSpaceOnUse" gradientTransform="translate(60 246.583) rotate(-90) scale(85.0833 62.8308)">
<stop stop-color="#C11B1B"/>
<stop offset="0.417859" stop-color="#EF0C0C"/>
<stop offset="1" stop-color="#FF003D"/>
</radialGradient>
</defs>
</svg>
