<svg width="270" height="81" viewBox="0 0 270 81" fill="none" xmlns="http://www.w3.org/2000/svg">
<path fill-rule="evenodd" clip-rule="evenodd" d="M269.342 27.3417L242.315 0.314667C214.137 26.7851 176.212 43 134.5 43C93.0425 43 55.3262 26.9823 27.2021 0.797913L0.658325 27.3417C35.6316 60.5934 82.9327 81 135 81C187.067 81 234.368 60.5934 269.342 27.3417ZM160.216 53.48C159.336 52.968 158.328 52.712 157.192 52.712C155.784 52.712 154.632 53.072 153.736 53.792C152.824 54.528 152.208 55.448 151.888 56.552H153.88C154.136 55.896 154.544 55.376 155.104 54.992C155.664 54.608 156.36 54.416 157.192 54.416C157.832 54.416 158.44 54.568 159.016 54.872C159.576 55.176 160.048 55.624 160.432 56.216C160.8 56.824 161.008 57.584 161.056 58.496H151.576V59.096C151.56 59.272 151.552 59.448 151.552 59.624C151.552 60.6 151.776 61.512 152.224 62.36C152.672 63.208 153.32 63.888 154.168 64.4C155 64.928 155.992 65.192 157.144 65.192C158.312 65.192 159.344 64.928 160.24 64.4C161.12 63.888 161.808 63.16 162.304 62.216C162.8 61.288 163.048 60.2 163.048 58.952C163.048 57.688 162.8 56.592 162.304 55.664C161.792 54.736 161.096 54.008 160.216 53.48ZM159.76 62.6C159.008 63.192 158.152 63.488 157.192 63.488C156.184 63.488 155.336 63.184 154.648 62.576C153.96 61.968 153.592 61.128 153.544 60.056H161.032C160.92 61.176 160.496 62.024 159.76 62.6ZM148.88 64.904V53H146.864V59.168C146.864 60.544 146.552 61.6 145.928 62.336C145.288 63.088 144.496 63.464 143.552 63.464C142.624 63.464 141.912 63.152 141.416 62.528C140.92 61.904 140.672 60.976 140.672 59.744V53H138.656V59.168C138.656 60.544 138.344 61.6 137.72 62.336C137.08 63.088 136.28 63.464 135.32 63.464C134.392 63.464 133.68 63.152 133.184 62.528C132.688 61.904 132.44 60.976 132.44 59.744V53H130.448V59.96C130.448 61.736 130.872 63.048 131.72 63.896C132.568 64.76 133.704 65.192 135.128 65.192C135.976 65.192 136.768 64.984 137.504 64.568C138.224 64.152 138.792 63.584 139.208 62.864C139.576 63.648 140.104 64.232 140.792 64.616C141.464 65 142.272 65.192 143.216 65.192C144.016 65.192 144.736 65.016 145.376 64.664C146.016 64.312 146.528 63.816 146.912 63.176L147.056 64.904H148.88ZM125.923 53.216C125.267 52.88 124.443 52.712 123.451 52.712C122.363 52.712 121.499 52.944 120.859 53.408C120.203 53.888 119.707 54.464 119.371 55.136L119.251 53H117.451V60.32C117.451 61.792 117.875 62.968 118.723 63.848C119.555 64.744 120.803 65.192 122.467 65.192C123.315 65.192 124.115 65.032 124.867 64.712C125.619 64.408 126.251 63.96 126.763 63.368C127.259 62.776 127.547 62.048 127.627 61.184H125.563C125.419 61.936 125.067 62.504 124.507 62.888C123.931 63.288 123.251 63.488 122.467 63.488C121.555 63.488 120.827 63.216 120.283 62.672C119.739 62.144 119.467 61.36 119.467 60.32V60.176H122.683C124.283 60.176 125.547 59.848 126.475 59.192C127.403 58.536 127.867 57.6 127.867 56.384C127.867 55.728 127.707 55.12 127.387 54.56C127.067 54 126.579 53.552 125.923 53.216ZM121.171 55.016C121.715 54.616 122.371 54.416 123.139 54.416C123.971 54.416 124.619 54.6 125.083 54.968C125.531 55.352 125.755 55.856 125.755 56.48C125.755 57.088 125.515 57.592 125.035 57.992C124.539 58.408 123.699 58.616 122.515 58.616H119.467V58.592C119.467 57.888 119.611 57.216 119.899 56.576C120.187 55.936 120.611 55.416 121.171 55.016ZM114.211 67.928C113.939 67.672 113.603 67.544 113.203 67.544C112.819 67.544 112.491 67.672 112.219 67.928C111.947 68.2 111.811 68.536 111.811 68.936C111.811 69.32 111.947 69.64 112.219 69.896C112.491 70.152 112.819 70.28 113.203 70.28C113.603 70.28 113.939 70.152 114.211 69.896C114.467 69.64 114.595 69.32 114.595 68.936C114.595 68.536 114.467 68.2 114.211 67.928ZM114.211 64.904V53H112.195V64.904H114.211ZM108.685 70.28V53H106.669V70.28H108.685Z" fill="white"/>
</svg>
