<svg width="81" height="270" viewBox="0 0 81 270" fill="none" xmlns="http://www.w3.org/2000/svg">
<rect x="45.5" y="199.5" width="129" height="25" transform="rotate(-90 45.5 199.5)" fill="url(#paint0_diamond_23_96)" stroke="black"/>
<path fill-rule="evenodd" clip-rule="evenodd" d="M27.4109 269.269C60.6217 234.303 81 187.031 81 135C81 82.9326 60.5933 35.6315 27.3416 0.65831L0.797882 27.2021C26.9823 55.3262 43 93.0425 43 134.5C43 176.176 26.8132 214.071 0.383484 242.241L27.4109 269.269ZM63.904 83.656H46.72V85.672H53.992C53.272 86.072 52.712 86.648 52.312 87.4C51.912 88.168 51.712 89.04 51.712 90.016C51.712 91.2 51.976 92.232 52.504 93.112C53.048 94.008 53.784 94.696 54.712 95.176C55.656 95.672 56.728 95.92 57.928 95.92C59.128 95.92 60.2 95.672 61.144 95.176C62.088 94.696 62.832 94.016 63.376 93.136C63.92 92.256 64.192 91.224 64.192 90.04C64.192 88.936 63.96 88.024 63.496 87.304C63.032 86.6 62.512 86.056 61.936 85.672L63.904 85.48V83.656ZM54.016 91.912C53.648 91.304 53.464 90.6 53.464 89.8C53.464 89 53.648 88.296 54.016 87.688C54.4 87.08 54.928 86.6 55.6 86.248C56.272 85.896 57.056 85.72 57.952 85.72C58.848 85.72 59.632 85.896 60.304 86.248C60.976 86.6 61.496 87.08 61.864 87.688C62.248 88.296 62.44 89 62.44 89.8C62.44 90.6 62.248 91.304 61.864 91.912C61.496 92.52 60.976 93 60.304 93.352C59.632 93.704 58.848 93.88 57.952 93.88C57.056 93.88 56.272 93.704 55.6 93.352C54.928 93 54.4 92.52 54.016 91.912ZM52.216 100.214C51.88 100.87 51.712 101.694 51.712 102.686C51.712 103.774 51.944 104.638 52.408 105.278C52.888 105.934 53.464 106.43 54.136 106.766L52 106.886V108.686H59.32C60.792 108.686 61.968 108.262 62.848 107.414C63.744 106.582 64.192 105.334 64.192 103.67C64.192 102.822 64.032 102.022 63.712 101.27C63.408 100.518 62.96 99.8863 62.368 99.3743C61.776 98.8783 61.048 98.5903 60.184 98.5103V100.574C60.936 100.718 61.504 101.07 61.888 101.63C62.288 102.206 62.488 102.886 62.488 103.67C62.488 104.582 62.216 105.31 61.672 105.854C61.144 106.398 60.36 106.67 59.32 106.67H59.176V103.454C59.176 101.854 58.848 100.59 58.192 99.6623C57.536 98.7343 56.6 98.2703 55.384 98.2703C54.728 98.2703 54.12 98.4303 53.56 98.7503C53 99.0703 52.552 99.5583 52.216 100.214ZM54.016 104.966C53.616 104.422 53.416 103.766 53.416 102.998C53.416 102.166 53.6 101.518 53.968 101.054C54.352 100.606 54.856 100.382 55.48 100.382C56.088 100.382 56.592 100.622 56.992 101.102C57.408 101.598 57.616 102.438 57.616 103.622V106.67H57.592C56.888 106.67 56.216 106.526 55.576 106.238C54.936 105.95 54.416 105.526 54.016 104.966ZM52.792 112.719C52.072 113.663 51.712 114.847 51.712 116.271C51.712 117.679 52.056 118.791 52.744 119.607C53.448 120.439 54.336 120.847 55.408 120.831C56.272 120.831 56.928 120.615 57.376 120.183C57.84 119.767 58.184 119.223 58.408 118.551C58.648 117.895 58.848 117.199 59.008 116.463C59.2 115.599 59.432 114.911 59.704 114.399C59.976 113.903 60.352 113.655 60.832 113.655C61.328 113.655 61.728 113.847 62.032 114.231C62.336 114.631 62.488 115.191 62.488 115.911C62.488 116.647 62.312 117.231 61.96 117.663C61.624 118.111 61.152 118.375 60.544 118.455V120.447C61.712 120.319 62.608 119.847 63.232 119.031C63.872 118.231 64.192 117.199 64.192 115.935C64.192 114.607 63.856 113.551 63.184 112.767C62.528 111.999 61.68 111.615 60.64 111.615C59.92 111.615 59.336 111.831 58.888 112.263C58.456 112.695 58.12 113.231 57.88 113.871C57.64 114.511 57.456 115.151 57.328 115.791C57.136 116.735 56.92 117.463 56.68 117.975C56.44 118.503 55.96 118.767 55.24 118.767C54.744 118.767 54.312 118.567 53.944 118.167C53.592 117.767 53.416 117.143 53.416 116.295C53.416 115.383 53.64 114.655 54.088 114.111C54.552 113.583 55.096 113.255 55.72 113.127V111.063C54.488 111.223 53.512 111.775 52.792 112.719ZM52.792 124.719C52.072 125.663 51.712 126.847 51.712 128.271C51.712 129.679 52.056 130.791 52.744 131.607C53.448 132.439 54.336 132.847 55.408 132.831C56.272 132.831 56.928 132.615 57.376 132.183C57.84 131.767 58.184 131.223 58.408 130.551C58.648 129.895 58.848 129.199 59.008 128.463C59.2 127.599 59.432 126.911 59.704 126.399C59.976 125.903 60.352 125.655 60.832 125.655C61.328 125.655 61.728 125.847 62.032 126.231C62.336 126.631 62.488 127.191 62.488 127.911C62.488 128.647 62.312 129.231 61.96 129.663C61.624 130.111 61.152 130.375 60.544 130.455V132.447C61.712 132.319 62.608 131.847 63.232 131.031C63.872 130.231 64.192 129.199 64.192 127.935C64.192 126.607 63.856 125.551 63.184 124.767C62.528 123.999 61.68 123.615 60.64 123.615C59.92 123.615 59.336 123.831 58.888 124.263C58.456 124.695 58.12 125.231 57.88 125.871C57.64 126.511 57.456 127.151 57.328 127.791C57.136 128.735 56.92 129.463 56.68 129.975C56.44 130.503 55.96 130.767 55.24 130.767C54.744 130.767 54.312 130.567 53.944 130.167C53.592 129.767 53.416 129.143 53.416 128.295C53.416 127.383 53.64 126.655 54.088 126.111C54.552 125.583 55.096 125.255 55.72 125.127V123.063C54.488 123.223 53.512 123.775 52.792 124.719ZM63.904 136.201V134.185L52 137.665V139.729L61.816 142.657L52 145.585V147.649L63.904 151.129V149.089L54.568 146.593L63.904 143.785V141.505L54.568 138.721L63.904 136.201ZM52.48 155.314C51.968 156.21 51.712 157.218 51.712 158.338C51.712 159.458 51.968 160.466 52.48 161.362C52.992 162.274 53.712 162.994 54.64 163.522C55.584 164.05 56.688 164.314 57.952 164.314C59.216 164.314 60.312 164.05 61.24 163.522C62.184 163.01 62.912 162.306 63.424 161.41C63.936 160.514 64.192 159.506 64.192 158.386C64.192 157.266 63.936 156.25 63.424 155.338C62.912 154.442 62.184 153.73 61.24 153.202C60.312 152.674 59.216 152.41 57.952 152.41C56.688 152.41 55.584 152.666 54.64 153.178C53.712 153.706 52.992 154.418 52.48 155.314ZM53.944 160.258C53.608 159.666 53.44 159.026 53.44 158.338C53.44 157.666 53.608 157.034 53.944 156.442C54.28 155.866 54.784 155.394 55.456 155.026C56.128 154.658 56.96 154.474 57.952 154.474C58.944 154.474 59.776 154.658 60.448 155.026C61.12 155.394 61.624 155.874 61.96 156.466C62.296 157.058 62.464 157.698 62.464 158.386C62.464 159.058 62.296 159.69 61.96 160.282C61.624 160.874 61.12 161.346 60.448 161.698C59.776 162.066 58.944 162.25 57.952 162.25C56.96 162.25 56.128 162.066 55.456 161.698C54.784 161.33 54.28 160.85 53.944 160.258ZM63.904 168.941V167.117H52V169.133H58C59.04 169.133 59.856 169.309 60.448 169.661C61.04 170.013 61.456 170.485 61.696 171.077C61.952 171.669 62.08 172.317 62.08 173.021V173.573H64.192C64.192 172.469 63.96 171.541 63.496 170.789C63.032 170.037 62.408 169.477 61.624 169.109L63.904 168.941ZM52.528 177.67C51.984 178.566 51.712 179.606 51.712 180.79C51.712 181.878 51.944 182.782 52.408 183.502C52.872 184.222 53.392 184.774 53.968 185.158L52 185.35V187.174H69.28V185.158H61.912C62.632 184.742 63.192 184.158 63.592 183.406C63.992 182.654 64.192 181.79 64.192 180.814C64.192 179.614 63.92 178.574 63.376 177.694C62.848 176.814 62.112 176.126 61.168 175.63C60.24 175.134 59.176 174.886 57.976 174.886C56.776 174.886 55.704 175.126 54.76 175.606C53.816 176.102 53.072 176.79 52.528 177.67ZM54.016 183.118C53.648 182.51 53.464 181.806 53.464 181.006C53.464 180.222 53.648 179.518 54.016 178.894C54.4 178.286 54.928 177.806 55.6 177.454C56.272 177.118 57.056 176.95 57.952 176.95C58.848 176.95 59.632 177.118 60.304 177.454C60.976 177.806 61.496 178.286 61.864 178.894C62.248 179.518 62.44 180.222 62.44 181.006C62.44 181.806 62.248 182.51 61.864 183.118C61.496 183.742 60.976 184.222 60.304 184.558C59.632 184.91 58.848 185.086 57.952 185.086C57.056 185.086 56.272 184.91 55.6 184.558C54.928 184.222 54.4 183.742 54.016 183.118Z" fill="white"/>
<defs>
<radialGradient id="paint0_diamond_23_96" cx="0" cy="0" r="1" gradientUnits="userSpaceOnUse" gradientTransform="translate(110 259.583) rotate(-90) scale(110.5 102)">
<stop stop-color="#3F9038"/>
<stop offset="0.417859" stop-color="#33CB26"/>
<stop offset="1" stop-color="#2AF918"/>
</radialGradient>
</defs>
</svg>
