<svg width="270" height="81" viewBox="0 0 270 81" fill="none" xmlns="http://www.w3.org/2000/svg">
<rect x="70.5" y="12.5" width="129" height="23" fill="url(#paint0_diamond_23_91)" stroke="black"/>
<path fill-rule="evenodd" clip-rule="evenodd" d="M26.7604 79.6149L0.73291 53.5875C35.6988 20.3777 82.9697 0 135 0C187.031 0 234.303 20.3783 269.269 53.5891L242.756 80.1017C214.533 53.3851 176.43 37 134.5 37C92.8251 37 54.9307 53.1862 26.7604 79.6149ZM82.64 28.016C83.472 28.864 84.592 29.288 86 29.288C86.912 29.288 87.728 29.072 88.448 28.64C89.184 28.208 89.736 27.616 90.104 26.864L90.248 29H92.072V17.096H90.056V23.264C90.056 24.64 89.712 25.704 89.024 26.456C88.352 27.192 87.496 27.56 86.456 27.56C84.424 27.56 83.408 26.32 83.408 23.84V17.096H81.392V24.056C81.392 25.832 81.808 27.152 82.64 28.016ZM96.3984 28.208C97.3424 28.928 98.5264 29.288 99.9504 29.288C101.358 29.288 102.47 28.944 103.286 28.256C104.118 27.552 104.526 26.664 104.51 25.592C104.51 24.728 104.294 24.072 103.862 23.624C103.446 23.16 102.902 22.816 102.23 22.592C101.574 22.352 100.878 22.152 100.142 21.992C99.2784 21.8 98.5904 21.568 98.0784 21.296C97.5824 21.024 97.3344 20.648 97.3344 20.168C97.3344 19.672 97.5264 19.272 97.9104 18.968C98.3104 18.664 98.8704 18.512 99.5904 18.512C100.326 18.512 100.91 18.688 101.342 19.04C101.79 19.376 102.054 19.848 102.134 20.456H104.126C103.998 19.288 103.526 18.392 102.71 17.768C101.91 17.128 100.878 16.808 99.6144 16.808C98.2864 16.808 97.2304 17.144 96.4464 17.816C95.6784 18.472 95.2944 19.32 95.2944 20.36C95.2944 21.08 95.5104 21.664 95.9424 22.112C96.3744 22.544 96.9104 22.88 97.5504 23.12C98.1904 23.36 98.8304 23.544 99.4704 23.672C100.414 23.864 101.142 24.08 101.654 24.32C102.182 24.56 102.446 25.04 102.446 25.76C102.446 26.256 102.246 26.688 101.846 27.056C101.446 27.408 100.822 27.584 99.9744 27.584C99.0624 27.584 98.3344 27.36 97.7904 26.912C97.2624 26.448 96.9344 25.904 96.8064 25.28H94.7424C94.9024 26.512 95.4544 27.488 96.3984 28.208ZM109.718 28.52C110.598 29.032 111.606 29.288 112.742 29.288C114.15 29.288 115.302 28.928 116.198 28.208C117.11 27.472 117.726 26.552 118.046 25.448H116.054C115.798 26.104 115.39 26.624 114.83 27.008C114.27 27.392 113.574 27.584 112.742 27.584C112.102 27.584 111.494 27.432 110.918 27.128C110.358 26.824 109.886 26.376 109.502 25.784C109.134 25.176 108.926 24.416 108.878 23.504H118.358V22.904C118.374 22.728 118.382 22.552 118.382 22.376C118.382 21.4 118.158 20.488 117.71 19.64C117.262 18.792 116.614 18.112 115.766 17.6C114.934 17.072 113.942 16.808 112.79 16.808C111.622 16.808 110.59 17.072 109.694 17.6C108.814 18.112 108.126 18.84 107.63 19.784C107.134 20.712 106.886 21.8 106.886 23.048C106.886 24.312 107.134 25.408 107.63 26.336C108.142 27.264 108.838 27.992 109.718 28.52ZM110.174 19.4C110.926 18.808 111.782 18.512 112.742 18.512C113.75 18.512 114.598 18.816 115.286 19.424C115.974 20.032 116.342 20.872 116.39 21.944H108.902C109.014 20.824 109.438 19.976 110.174 19.4ZM122.878 17.096H121.054V29H123.07V23C123.07 21.96 123.246 21.144 123.598 20.552C123.95 19.96 124.422 19.544 125.014 19.304C125.606 19.048 126.254 18.92 126.958 18.92H127.51V16.808C126.406 16.808 125.478 17.04 124.726 17.504C123.974 17.968 123.414 18.592 123.046 19.376L122.878 17.096ZM131.597 17.096H129.773V29H131.789V22.832C131.789 21.456 132.125 20.4 132.797 19.664C133.485 18.912 134.341 18.536 135.365 18.536C137.413 18.536 138.437 19.776 138.437 22.256V29H140.453V22.04C140.453 20.264 140.029 18.952 139.181 18.104C138.349 17.24 137.229 16.808 135.821 16.808C134.909 16.808 134.093 17.024 133.373 17.456C132.653 17.888 132.101 18.48 131.717 19.232L131.597 17.096ZM144.996 28.784C145.652 29.12 146.476 29.288 147.468 29.288C148.556 29.288 149.42 29.056 150.06 28.592C150.716 28.112 151.212 27.536 151.548 26.864L151.668 29H153.468V21.68C153.468 20.208 153.044 19.032 152.196 18.152C151.364 17.256 150.116 16.808 148.452 16.808C147.604 16.808 146.804 16.968 146.052 17.288C145.3 17.592 144.668 18.04 144.156 18.632C143.66 19.224 143.372 19.952 143.292 20.816H145.356C145.5 20.064 145.852 19.496 146.412 19.112C146.988 18.712 147.668 18.512 148.452 18.512C149.364 18.512 150.092 18.784 150.636 19.328C151.18 19.856 151.452 20.64 151.452 21.68V21.824H148.236C146.636 21.824 145.372 22.152 144.444 22.808C143.516 23.464 143.052 24.4 143.052 25.616C143.052 26.272 143.212 26.88 143.532 27.44C143.852 28 144.34 28.448 144.996 28.784ZM149.748 26.984C149.204 27.384 148.548 27.584 147.78 27.584C146.948 27.584 146.3 27.4 145.836 27.032C145.388 26.648 145.164 26.144 145.164 25.52C145.164 24.912 145.404 24.408 145.884 24.008C146.38 23.592 147.22 23.384 148.404 23.384H151.452V23.408C151.452 24.112 151.308 24.784 151.02 25.424C150.732 26.064 150.308 26.584 149.748 26.984ZM158.316 17.096H156.492V29H158.508V22.832C158.508 21.456 158.82 20.4 159.444 19.664C160.084 18.912 160.876 18.536 161.82 18.536C162.748 18.536 163.46 18.848 163.956 19.472C164.452 20.096 164.7 21.024 164.7 22.256V29H166.716V22.832C166.716 21.456 167.028 20.4 167.652 19.664C168.292 18.912 169.092 18.536 170.052 18.536C170.98 18.536 171.692 18.848 172.188 19.472C172.684 20.096 172.932 21.024 172.932 22.256V29H174.924V22.04C174.924 20.264 174.5 18.952 173.652 18.104C172.804 17.24 171.668 16.808 170.244 16.808C169.396 16.808 168.604 17.016 167.868 17.432C167.148 17.848 166.58 18.416 166.164 19.136C165.796 18.352 165.268 17.768 164.58 17.384C163.908 17 163.1 16.808 162.156 16.808C161.356 16.808 160.636 16.984 159.996 17.336C159.356 17.688 158.844 18.184 158.46 18.824L158.316 17.096ZM180.289 28.52C181.169 29.032 182.177 29.288 183.313 29.288C184.721 29.288 185.873 28.928 186.769 28.208C187.681 27.472 188.297 26.552 188.617 25.448H186.625C186.369 26.104 185.961 26.624 185.401 27.008C184.841 27.392 184.145 27.584 183.313 27.584C182.673 27.584 182.065 27.432 181.489 27.128C180.929 26.824 180.457 26.376 180.073 25.784C179.705 25.176 179.497 24.416 179.449 23.504H188.929V22.904C188.945 22.728 188.953 22.552 188.953 22.376C188.953 21.4 188.729 20.488 188.281 19.64C187.833 18.792 187.185 18.112 186.337 17.6C185.505 17.072 184.513 16.808 183.361 16.808C182.193 16.808 181.161 17.072 180.265 17.6C179.385 18.112 178.697 18.84 178.201 19.784C177.705 20.712 177.457 21.8 177.457 23.048C177.457 24.312 177.705 25.408 178.201 26.336C178.713 27.264 179.409 27.992 180.289 28.52ZM180.745 19.4C181.497 18.808 182.353 18.512 183.313 18.512C184.321 18.512 185.169 18.816 185.857 19.424C186.545 20.032 186.913 20.872 186.961 21.944H179.473C179.585 20.824 180.009 19.976 180.745 19.4Z" fill="white"/>
<defs>
<radialGradient id="paint0_diamond_23_91" cx="0" cy="0" r="1" gradientUnits="userSpaceOnUse" gradientTransform="translate(135 67) rotate(-90) scale(91.5 91.5)">
<stop stop-color="#C11B1B"/>
<stop offset="0.417859" stop-color="#EF0C0C"/>
<stop offset="1" stop-color="#FF003D"/>
</radialGradient>
</defs>
</svg>
