<svg width="75" height="256" viewBox="0 0 75 256" fill="none" xmlns="http://www.w3.org/2000/svg">
<path fill-rule="evenodd" clip-rule="evenodd" d="M75 128C75 174.498 58.7255 217.195 31.562 250.705C26.2501 257.258 16.4925 257.35 10.5277 251.386L4.65732 245.515C-1.06897 239.789 -1.15112 230.593 3.82534 224.204C24.6159 197.514 37 163.953 37 127.5C37 91.2448 24.75 57.8508 4.16337 31.2312C-0.777165 24.8428 -0.678117 15.6781 5.03241 9.96755L10.464 4.53593C16.4267 -1.42671 26.1801 -1.33673 31.4937 5.21094C58.6982 38.7338 75 81.4632 75 128Z" fill="white"/>
<path d="M46 80.9L58.6 80.918V85.724C58.6 86.336 58.426 86.882 58.078 87.362C57.742 87.842 57.292 88.22 56.728 88.496C56.176 88.772 55.582 88.91 54.946 88.91C54.502 88.91 54.064 88.82 53.632 88.64C53.212 88.472 52.822 88.238 52.462 87.938C52.114 87.65 51.832 87.308 51.616 86.912C51.412 86.528 51.31 86.114 51.31 85.67V82.322H46V80.9ZM52.696 82.322V85.634C52.696 85.97 52.804 86.276 53.02 86.552C53.248 86.84 53.536 87.068 53.884 87.236C54.232 87.416 54.586 87.506 54.946 87.506C55.354 87.506 55.726 87.422 56.062 87.254C56.41 87.098 56.686 86.882 56.89 86.606C57.094 86.33 57.196 86.024 57.196 85.688V82.322H52.696ZM46 88.3665L58.6 92.5785V94.3965L46 98.6265V97.0965L49.204 96.0345V90.9405L46 89.8785V88.3665ZM56.872 93.4965L50.41 91.3365V95.6385L56.872 93.4965ZM45.838 103.986C45.838 103.194 45.994 102.42 46.306 101.664C46.618 100.92 47.002 100.296 47.458 99.7923L48.466 100.89C48.106 101.334 47.818 101.832 47.602 102.384C47.398 102.936 47.296 103.458 47.296 103.95C47.296 104.442 47.392 104.892 47.584 105.3C47.776 105.72 48.04 106.056 48.376 106.308C48.724 106.56 49.126 106.692 49.582 106.704C50.158 106.716 50.62 106.512 50.968 106.092C51.316 105.672 51.598 105.024 51.814 104.148C52.03 103.296 52.294 102.552 52.606 101.916C52.93 101.28 53.338 100.794 53.83 100.458C54.322 100.122 54.934 99.9843 55.666 100.044C56.638 100.128 57.382 100.53 57.898 101.25C58.426 101.982 58.69 102.942 58.69 104.13C58.69 104.706 58.618 105.312 58.474 105.948C58.342 106.596 58.114 107.202 57.79 107.766L56.638 106.812C56.818 106.392 56.962 105.96 57.07 105.516C57.19 105.072 57.256 104.622 57.268 104.166C57.268 103.722 57.208 103.296 57.088 102.888C56.98 102.492 56.794 102.168 56.53 101.916C56.278 101.664 55.936 101.532 55.504 101.52C55.06 101.52 54.7 101.64 54.424 101.88C54.16 102.12 53.944 102.444 53.776 102.852C53.608 103.26 53.452 103.716 53.308 104.22C53.08 105.072 52.828 105.786 52.552 106.362C52.276 106.95 51.91 107.394 51.454 107.694C50.998 107.994 50.374 108.144 49.582 108.144C48.874 108.144 48.238 107.952 47.674 107.568C47.11 107.196 46.66 106.692 46.324 106.056C46 105.432 45.838 104.742 45.838 103.986ZM45.838 113.777C45.838 112.985 45.994 112.211 46.306 111.455C46.618 110.711 47.002 110.087 47.458 109.583L48.466 110.681C48.106 111.125 47.818 111.623 47.602 112.175C47.398 112.727 47.296 113.249 47.296 113.741C47.296 114.233 47.392 114.683 47.584 115.091C47.776 115.511 48.04 115.847 48.376 116.099C48.724 116.351 49.126 116.483 49.582 116.495C50.158 116.507 50.62 116.303 50.968 115.883C51.316 115.463 51.598 114.815 51.814 113.939C52.03 113.087 52.294 112.343 52.606 111.707C52.93 111.071 53.338 110.585 53.83 110.249C54.322 109.913 54.934 109.775 55.666 109.835C56.638 109.919 57.382 110.321 57.898 111.041C58.426 111.773 58.69 112.733 58.69 113.921C58.69 114.497 58.618 115.103 58.474 115.739C58.342 116.387 58.114 116.993 57.79 117.557L56.638 116.603C56.818 116.183 56.962 115.751 57.07 115.307C57.19 114.863 57.256 114.413 57.268 113.957C57.268 113.513 57.208 113.087 57.088 112.679C56.98 112.283 56.794 111.959 56.53 111.707C56.278 111.455 55.936 111.323 55.504 111.311C55.06 111.311 54.7 111.431 54.424 111.671C54.16 111.911 53.944 112.235 53.776 112.643C53.608 113.051 53.452 113.507 53.308 114.011C53.08 114.863 52.828 115.577 52.552 116.153C52.276 116.741 51.91 117.185 51.454 117.485C50.998 117.785 50.374 117.935 49.582 117.935C48.874 117.935 48.238 117.743 47.674 117.359C47.11 116.987 46.66 116.483 46.324 115.847C46 115.223 45.838 114.533 45.838 113.777ZM58.6 137.266L46 133.342V131.578L54.586 128.32L46 125.098V123.334L58.6 119.374V120.886L47.836 124.234L56.458 127.564V129.094L47.818 132.424L58.6 135.736V137.266ZM52.3 150.144C51.388 150.144 50.536 149.982 49.744 149.658C48.964 149.346 48.28 148.908 47.692 148.344C47.104 147.78 46.642 147.126 46.306 146.382C45.982 145.638 45.82 144.84 45.82 143.988C45.82 143.124 45.988 142.32 46.324 141.576C46.66 140.832 47.122 140.178 47.71 139.614C48.31 139.05 49 138.606 49.78 138.282C50.56 137.97 51.4 137.814 52.3 137.814C53.188 137.814 54.022 137.976 54.802 138.3C55.594 138.624 56.284 139.074 56.872 139.65C57.472 140.226 57.94 140.886 58.276 141.63C58.612 142.374 58.78 143.16 58.78 143.988C58.78 144.84 58.606 145.638 58.258 146.382C57.922 147.126 57.454 147.78 56.854 148.344C56.254 148.908 55.564 149.346 54.784 149.658C54.004 149.982 53.176 150.144 52.3 150.144ZM52.3 148.686C52.996 148.686 53.65 148.56 54.262 148.308C54.886 148.068 55.432 147.732 55.9 147.3C56.38 146.88 56.752 146.382 57.016 145.806C57.292 145.242 57.43 144.636 57.43 143.988C57.43 143.328 57.292 142.71 57.016 142.134C56.752 141.57 56.38 141.072 55.9 140.64C55.432 140.22 54.886 139.884 54.262 139.632C53.65 139.392 52.996 139.272 52.3 139.272C51.604 139.272 50.944 139.392 50.32 139.632C49.696 139.884 49.144 140.22 48.664 140.64C48.196 141.072 47.824 141.57 47.548 142.134C47.284 142.71 47.152 143.328 47.152 143.988C47.152 144.648 47.284 145.26 47.548 145.824C47.824 146.388 48.196 146.886 48.664 147.318C49.144 147.75 49.69 148.086 50.302 148.326C50.926 148.566 51.592 148.686 52.3 148.686ZM46 160.127V158.435L51.31 155.195V153.179H46V151.757L58.6 151.775V156.581C58.6 157.169 58.426 157.697 58.078 158.165C57.742 158.645 57.298 159.029 56.746 159.317C56.194 159.605 55.594 159.749 54.946 159.749C54.394 159.749 53.86 159.617 53.344 159.353C52.828 159.101 52.39 158.759 52.03 158.327C51.67 157.895 51.454 157.403 51.382 156.851L46 160.127ZM54.946 158.309C55.306 158.309 55.654 158.231 55.99 158.075C56.338 157.919 56.62 157.709 56.836 157.445C57.064 157.181 57.178 156.875 57.178 156.527V153.179H52.768V156.491C52.768 156.827 52.882 157.127 53.11 157.391C53.338 157.667 53.62 157.889 53.956 158.057C54.292 158.225 54.622 158.309 54.946 158.309ZM52.336 171.588C51.46 171.588 50.638 171.426 49.87 171.102C49.114 170.79 48.442 170.352 47.854 169.788C47.278 169.224 46.822 168.57 46.486 167.826C46.162 167.082 46 166.278 46 165.414V161.742H58.654V165.414C58.654 166.278 58.486 167.082 58.15 167.826C57.826 168.582 57.37 169.242 56.782 169.806C56.206 170.37 55.534 170.808 54.766 171.12C54.01 171.432 53.2 171.588 52.336 171.588ZM52.336 170.13C53.248 170.13 54.076 169.92 54.82 169.5C55.564 169.092 56.158 168.534 56.602 167.826C57.046 167.118 57.268 166.314 57.268 165.414V163.182H47.404V165.414C47.404 166.314 47.626 167.118 48.07 167.826C48.526 168.534 49.126 169.092 49.87 169.5C50.626 169.92 51.448 170.13 52.336 170.13Z" fill="black" fill-opacity="0.5"/>
</svg>
