<svg width="256" height="75" viewBox="0 0 256 75" fill="none" xmlns="http://www.w3.org/2000/svg">
<path fill-rule="evenodd" clip-rule="evenodd" d="M5.29713 43.4364C-1.25595 48.7482 -1.34859 58.506 4.61624 64.4708L9.48669 69.3412C15.2129 75.0675 24.4086 75.1497 30.7973 70.1734C57.4876 49.3836 91.0476 37 127.5 37C164.184 37 197.939 49.5414 224.71 70.5704C231.099 75.5889 240.331 75.5265 246.076 69.7819L251.386 64.4723C257.35 58.5075 257.258 48.7499 250.705 43.438C217.195 16.2745 174.498 0 128 0C81.5031 0 38.8071 16.2738 5.29713 43.4364Z" fill="white"/>
<path d="M92.64 14.4H94.062V27H92.64V25.578C92.232 26.034 91.746 26.4 91.182 26.676C90.63 26.952 90.03 27.09 89.382 27.09C88.518 27.09 87.732 26.892 87.024 26.496C86.328 26.088 85.77 25.548 85.35 24.876C84.93 24.192 84.72 23.43 84.72 22.59V14.4H86.142L86.16 22.59C86.16 23.154 86.304 23.67 86.592 24.138C86.88 24.594 87.27 24.96 87.762 25.236C88.254 25.512 88.794 25.65 89.382 25.65C90.006 25.65 90.564 25.518 91.056 25.254C91.548 24.978 91.932 24.606 92.208 24.138C92.496 23.67 92.64 23.154 92.64 22.59V14.4ZM99.8828 27.162C99.0908 27.162 98.3168 27.006 97.5608 26.694C96.8168 26.382 96.1928 25.998 95.6888 25.542L96.7868 24.534C97.2308 24.894 97.7288 25.182 98.2808 25.398C98.8328 25.602 99.3548 25.704 99.8468 25.704C100.339 25.704 100.789 25.608 101.197 25.416C101.617 25.224 101.953 24.96 102.205 24.624C102.457 24.276 102.589 23.874 102.601 23.418C102.613 22.842 102.409 22.38 101.989 22.032C101.569 21.684 100.921 21.402 100.045 21.186C99.1928 20.97 98.4488 20.706 97.8128 20.394C97.1768 20.07 96.6908 19.662 96.3548 19.17C96.0188 18.678 95.8808 18.066 95.9408 17.334C96.0248 16.362 96.4268 15.618 97.1468 15.102C97.8788 14.574 98.8388 14.31 100.027 14.31C100.603 14.31 101.209 14.382 101.845 14.526C102.493 14.658 103.099 14.886 103.663 15.21L102.709 16.362C102.289 16.182 101.857 16.038 101.413 15.93C100.969 15.81 100.519 15.744 100.063 15.732C99.6188 15.732 99.1928 15.792 98.7848 15.912C98.3888 16.02 98.0648 16.206 97.8128 16.47C97.5608 16.722 97.4288 17.064 97.4168 17.496C97.4168 17.94 97.5368 18.3 97.7768 18.576C98.0168 18.84 98.3408 19.056 98.7488 19.224C99.1568 19.392 99.6128 19.548 100.117 19.692C100.969 19.92 101.683 20.172 102.259 20.448C102.847 20.724 103.291 21.09 103.591 21.546C103.891 22.002 104.041 22.626 104.041 23.418C104.041 24.126 103.849 24.762 103.465 25.326C103.093 25.89 102.589 26.34 101.953 26.676C101.329 27 100.639 27.162 99.8828 27.162ZM112.464 27H105.66V14.4H112.464V15.696H107.082V20.214H111.438V21.438H107.082V25.704H112.464V27ZM122.45 27H120.758L117.518 21.69H115.502V27H114.08L114.098 14.4H118.904C119.492 14.4 120.02 14.574 120.488 14.922C120.968 15.258 121.352 15.702 121.64 16.254C121.928 16.806 122.072 17.406 122.072 18.054C122.072 18.606 121.94 19.14 121.676 19.656C121.424 20.172 121.082 20.61 120.65 20.97C120.218 21.33 119.726 21.546 119.174 21.618L122.45 27ZM120.632 18.054C120.632 17.694 120.554 17.346 120.398 17.01C120.242 16.662 120.032 16.38 119.768 16.164C119.504 15.936 119.198 15.822 118.85 15.822H115.502V20.232H118.814C119.15 20.232 119.45 20.118 119.714 19.89C119.99 19.662 120.212 19.38 120.38 19.044C120.548 18.708 120.632 18.378 120.632 18.054ZM133.496 27H131.516L125.486 16.038V26.982H124.064V14.382H126.152L132.074 25.218V14.382H133.496V27ZM135.116 27L139.328 14.4H141.146L145.376 27H143.846L142.784 23.796H137.69L136.628 27H135.116ZM140.246 16.128L138.086 22.59H142.388L140.246 16.128ZM147.004 27V14.4H149.974L153.502 23.346L157.03 14.4H160V27H158.56V16.02H157.948L154.294 25.038H152.728L149.056 16.02H148.426V27H147.004ZM168.608 27H161.804V14.4H168.608V15.696H163.226V20.214H167.582V21.438H163.226V25.704H168.608V27Z" fill="black" fill-opacity="0.5"/>
</svg>
