<svg width="256" height="75" viewBox="0 0 256 75" fill="none" xmlns="http://www.w3.org/2000/svg">
<path fill-rule="evenodd" clip-rule="evenodd" d="M224.276 3.7692C230.665 -1.21322 239.866 -1.13388 245.595 4.59502L251.464 10.464C257.427 16.4267 257.337 26.1801 250.789 31.4937C217.266 58.6982 174.537 75 128 75C81.4632 75 38.7339 58.6982 5.21096 31.4937C-1.33671 26.1801 -1.4267 16.4267 4.53594 10.4641L9.96756 5.03244C15.6781 -0.678087 24.8428 -0.777145 31.2312 4.16339C57.8508 24.75 91.2449 37 127.5 37C163.986 37 197.574 24.5936 224.276 3.7692Z" fill="white"/>
<path d="M112.704 61H105.9V48.4H112.704V49.696H107.322V54.214H111.678V55.438H107.322V59.704H112.704V61ZM114.32 61V48.4H117.29L120.818 57.346L124.346 48.4H127.316V61H125.876V50.02H125.264L121.61 59.038H120.044L116.372 50.02H115.742V61H114.32ZM128.941 61L133.153 48.4H134.971L139.201 61H137.671L136.609 57.796H131.515L130.453 61H128.941ZM134.071 50.128L131.911 56.59H136.213L134.071 50.128ZM142.25 61H140.828V48.4H142.25V61ZM149.949 61L144.081 61V48.4H145.503V59.632H149.949V61Z" fill="black" fill-opacity="0.5"/>
</svg>
