<svg width="75" height="256" viewBox="0 0 75 256" fill="none" xmlns="http://www.w3.org/2000/svg">
<path fill-rule="evenodd" clip-rule="evenodd" d="M70.2308 30.7236C75.2132 24.3349 75.1339 15.1339 69.405 9.40499L64.5359 4.53595C58.5733 -1.42669 48.8199 -1.3367 43.5063 5.21097C16.3018 38.7339 0 81.4632 0 128C0 174.498 16.2745 217.195 43.438 250.705C48.7499 257.258 58.5075 257.35 64.4723 251.386L69.7819 246.076C75.5265 240.331 75.5889 231.099 70.5704 224.71C49.5414 197.939 37 164.184 37 127.5C37 91.014 49.4064 57.4258 70.2308 30.7236Z" fill="white"/>
<path d="M29.18 162.052C29.18 162.928 29.012 163.744 28.676 164.5C28.34 165.244 27.884 165.898 27.308 166.462C26.732 167.038 26.06 167.488 25.292 167.812C24.512 168.124 23.648 168.28 22.7 168.28C21.788 168.28 20.936 168.118 20.144 167.794C19.352 167.47 18.668 167.026 18.092 166.462C17.516 165.898 17.06 165.244 16.724 164.5C16.388 163.744 16.22 162.928 16.22 162.052C16.22 161.176 16.4 160.348 16.76 159.568C17.12 158.776 17.666 158.056 18.398 157.408L19.334 158.542C18.206 159.574 17.642 160.744 17.642 162.052C17.642 162.724 17.774 163.342 18.038 163.906C18.302 164.47 18.662 164.974 19.118 165.418C19.574 165.85 20.108 166.192 20.72 166.444C21.32 166.684 21.98 166.804 22.7 166.804C23.432 166.804 24.104 166.684 24.716 166.444C25.316 166.192 25.838 165.85 26.282 165.418C26.738 164.974 27.098 164.47 27.362 163.906C27.626 163.342 27.758 162.724 27.758 162.052C27.758 160.744 27.194 159.574 26.066 158.542L27.002 157.408C27.734 158.056 28.28 158.776 28.64 159.568C29 160.348 29.18 161.176 29.18 162.052ZM29 156.327L16.4 152.115V150.297L29 146.067V147.597L25.796 148.659V153.753L29 154.815V156.327ZM18.128 151.197L24.59 153.357V149.055L18.128 151.197ZM29 144.44L16.4 144.422V139.616C16.4 139.004 16.574 138.458 16.922 137.978C17.258 137.498 17.708 137.12 18.272 136.844C18.824 136.568 19.418 136.43 20.054 136.43C20.498 136.43 20.936 136.52 21.368 136.7C21.788 136.868 22.178 137.102 22.538 137.402C22.886 137.69 23.168 138.032 23.384 138.428C23.588 138.812 23.69 139.226 23.69 139.67V143.018H29V144.44ZM22.304 143.018V139.706C22.304 139.37 22.196 139.064 21.98 138.788C21.752 138.5 21.464 138.272 21.116 138.104C20.768 137.924 20.414 137.834 20.054 137.834C19.646 137.834 19.274 137.918 18.938 138.086C18.59 138.242 18.314 138.458 18.11 138.734C17.906 139.01 17.804 139.316 17.804 139.652V143.018H22.304ZM17.714 125.84V129.764H29V131.204H17.714L17.714 135.128H16.4L16.4 125.84H17.714ZM29.18 119.478C29.18 120.354 29.012 121.17 28.676 121.926C28.34 122.67 27.884 123.324 27.308 123.888C26.732 124.464 26.06 124.914 25.292 125.238C24.512 125.55 23.648 125.706 22.7 125.706C21.788 125.706 20.936 125.544 20.144 125.22C19.352 124.896 18.668 124.452 18.092 123.888C17.516 123.324 17.06 122.67 16.724 121.926C16.388 121.17 16.22 120.354 16.22 119.478C16.22 118.602 16.4 117.774 16.76 116.994C17.12 116.202 17.666 115.482 18.398 114.834L19.334 115.968C18.206 117 17.642 118.17 17.642 119.478C17.642 120.15 17.774 120.768 18.038 121.332C18.302 121.896 18.662 122.4 19.118 122.844C19.574 123.276 20.108 123.618 20.72 123.87C21.32 124.11 21.98 124.23 22.7 124.23C23.432 124.23 24.104 124.11 24.716 123.87C25.316 123.618 25.838 123.276 26.282 122.844C26.738 122.4 27.098 121.896 27.362 121.332C27.626 120.768 27.758 120.15 27.758 119.478C27.758 118.17 27.194 117 26.066 115.968L27.002 114.834C27.734 115.482 28.28 116.202 28.64 116.994C29 117.774 29.18 118.602 29.18 119.478ZM29 104.185V105.607H23.51V111.799H29V113.221H16.4V111.799H22.286V105.607H16.4V104.185H29ZM29 102.573L16.4 98.361V96.543L29 92.313V93.843L25.796 94.905L25.796 99.999L29 101.061V102.573ZM18.128 97.443L24.59 99.603L24.59 95.301L18.128 97.443Z" fill="black" fill-opacity="0.5"/>
</svg>
